<svg id="Capa_1" enable-background="new 0 0 512 512" height="512" viewBox="0 0 512 512" width="512" xmlns="http://www.w3.org/2000/svg"><g><path d="m168.929 153.071c1.953 1.953 4.511 2.929 7.071 2.929s5.118-.976 7.071-2.929l36-36c3.905-3.905 3.905-10.237 0-14.143-3.906-3.905-10.236-3.905-14.143 0l-28.928 28.93-8.929-8.929c-3.906-3.905-10.236-3.905-14.143 0-3.905 3.905-3.905 10.237 0 14.143z"/><path d="m168.929 213.071c1.953 1.953 4.511 2.929 7.071 2.929s5.118-.976 7.071-2.929l36-36c3.905-3.905 3.905-10.237 0-14.143-3.906-3.905-10.236-3.905-14.143 0l-28.928 28.93-8.929-8.929c-3.906-3.905-10.236-3.905-14.143 0-3.905 3.905-3.905 10.237 0 14.143z"/><path d="m168.929 273.071c1.953 1.953 4.511 2.929 7.071 2.929s5.118-.976 7.071-2.929l36-36c3.905-3.905 3.905-10.237 0-14.143-3.906-3.905-10.236-3.905-14.143 0l-28.928 28.93-8.929-8.929c-3.906-3.905-10.236-3.905-14.143 0-3.905 3.905-3.905 10.237 0 14.143z"/><path d="m168.929 333.071c1.953 1.953 4.511 2.929 7.071 2.929s5.118-.976 7.071-2.929l36-36c3.905-3.905 3.905-10.237 0-14.143-3.906-3.905-10.236-3.905-14.143 0l-28.928 28.93-8.929-8.929c-3.906-3.905-10.236-3.905-14.143 0-3.905 3.905-3.905 10.237 0 14.143z"/><path d="m236 156h120c5.522 0 10-4.477 10-10s-4.478-10-10-10h-120c-5.522 0-10 4.477-10 10s4.478 10 10 10z"/><path d="m236 216h120c5.522 0 10-4.477 10-10s-4.478-10-10-10h-120c-5.522 0-10 4.477-10 10s4.478 10 10 10z"/><path d="m236 276h120c5.522 0 10-4.477 10-10s-4.478-10-10-10h-120c-5.522 0-10 4.477-10 10s4.478 10 10 10z"/><path d="m236 336h120c5.522 0 10-4.477 10-10s-4.478-10-10-10h-120c-5.522 0-10 4.477-10 10s4.478 10 10 10z"/><circle cx="256" cy="486" r="10"/><path d="m502 436h-30v-210c0-16.542-13.458-30-30-30h-36v-90c0-2.738-1.13-5.272-2.929-7.071l-80-80c-1.759-1.76-4.328-2.929-7.071-2.929h-200c-5.522 0-10 4.477-10 10v170h-36c-16.542 0-30 13.458-30 30v210h-30c-5.522 0-10 4.477-10 10 0 27.57 22.43 50 50 50h161c5.522 0 10-4.477 10-10s-4.478-10-10-10h-161c-13.038 0-24.159-8.359-28.286-20.01h468.572c-4.127 11.651-15.248 20.01-28.286 20.01h-161c-5.522 0-10 4.477-10 10s4.478 10 10 10h161c27.57 0 50-22.43 50-50 0-5.523-4.478-10-10-10zm-176-385.858 45.858 45.858h-45.858zm-200-14.142h180v70c0 5.523 4.478 10 10 10h70v280h-260zm-66 190c0-5.514 4.486-10 10-10h36v190c0 5.523 4.478 10 10 10h280c5.522 0 10-4.477 10-10v-190h36c5.514 0 10 4.486 10 10v210h-392z"/></g></svg>