<svg xmlns="http://www.w3.org/2000/svg" width="500" height="372.56" viewBox="0 0 500 372.56"><defs><style>.a{fill:#ebebeb;}.b{fill:#e6e6e6;}.c{fill:#f0f0f0;}.d{fill:#f5f5f5;}.e{fill:#fafafa;}.f,.q,.t{fill:#fff;}.g{fill:#e0e0e0;opacity:0.6;}.h,.s{fill:#263238;}.i{fill:#ffb573;}.j,.n,.r{fill:#1dbf73;}.k,.l,.t{opacity:0.2;}.m,.q,.s{opacity:0.4;}.n{opacity:0.3;}.o{opacity:0.5;}.p{fill:#ed893e;}.r{opacity:0.7;}</style></defs><g transform="translate(0 -55)"><rect class="a" width="500" height="0.25" transform="translate(0 382.4)"/><rect class="a" width="33.12" height="0.25" transform="translate(416.78 398.49)"/><rect class="a" width="8.69" height="0.25" transform="translate(322.53 401.21)"/><rect class="a" width="19.19" height="0.25" transform="translate(396.59 389.21)"/><rect class="a" width="43.19" height="0.25" transform="translate(52.46 390.89)"/><rect class="a" width="6.33" height="0.25" transform="translate(104.56 390.89)"/><rect class="a" width="93.68" height="0.25" transform="translate(131.47 395.11)"/><path class="a" d="M237,337.8H43.91a5.71,5.71,0,0,1-5.7-5.71V60.66A5.71,5.71,0,0,1,43.91,55H237a5.71,5.71,0,0,1,5.71,5.71V332.09A5.71,5.71,0,0,1,237,337.8ZM43.91,55.2a5.46,5.46,0,0,0-5.45,5.46V332.09a5.46,5.46,0,0,0,5.45,5.46H237a5.47,5.47,0,0,0,5.46-5.46V60.66A5.47,5.47,0,0,0,237,55.2Z"/><path class="a" d="M453.31,337.8H260.21a5.72,5.72,0,0,1-5.71-5.71V60.66A5.72,5.72,0,0,1,260.21,55h193.1A5.71,5.71,0,0,1,459,60.66V332.09A5.71,5.71,0,0,1,453.31,337.8ZM260.21,55.2a5.47,5.47,0,0,0-5.46,5.46V332.09a5.47,5.47,0,0,0,5.46,5.46h193.1a5.47,5.47,0,0,0,5.46-5.46V60.66a5.47,5.47,0,0,0-5.46-5.46Z"/><rect class="b" width="27.19" height="72.44" transform="translate(82.17 382.39) rotate(180)"/><path class="c" d="M60.14,382.4H54.97V363.25H65.55Z"/><rect class="b" width="27.19" height="72.44" transform="translate(237.29 382.39) rotate(180)"/><rect class="c" width="159.63" height="67.22" transform="translate(214.61 377.17) rotate(180)"/><path class="c" d="M209.44,382.4h5.17V363.25H204.03Z"/><path class="b" d="M209.8,369.08H161.48V317.36H209.8Zm-47.32-1H208.8V318.36H162.48Z"/><path class="b" d="M159,369.08H110.63V317.36H159Zm-47.32-1H158V318.36H111.63Z"/><path class="b" d="M108.1,369.08H59.78V317.36H108.1Zm-47.32-1H107.1V318.36H60.78Z"/><rect class="b" width="160.21" height="136.41" transform="translate(431.67 231.66) rotate(180)"/><rect class="d" width="162.24" height="136.41" transform="translate(430.1 231.66) rotate(180)"/><rect class="e" width="123.32" height="149.3" transform="translate(423.64 101.79) rotate(90)"/><path class="f" d="M405.31,225.11,346.55,101.8H326.59l58.76,123.31Z"/><path class="f" d="M379.69,225.11,320.93,101.8H307.19l58.76,123.31Z"/><rect class="b" width="123.32" height="7.72" transform="translate(329.77 101.8) rotate(90)"/><rect class="b" width="123.32" height="7.72" transform="translate(381.09 101.8) rotate(90)"/><rect class="d" width="132.34" height="9.76" transform="translate(328.37 96.93) rotate(90)"/><rect class="d" width="132.34" height="9.76" transform="translate(379.69 96.93) rotate(90)"/><rect class="b" width="123.32" height="0.69" transform="translate(275.02 101.8) rotate(90)"/><path class="b" d="M265.14,86.83H438.71a.84.84,0,0,1,.83.84h0a.83.83,0,0,1-.83.83H265.14a.83.83,0,0,1-.83-.83h0a.84.84,0,0,1,.83-.84Z"/><path class="b" d="M431.67,92.34h0a1.14,1.14,0,0,0,1.13-1.13V88.79a1.13,1.13,0,0,0-1.13-1.12h0a1.13,1.13,0,0,0-1.13,1.12v2.42a1.14,1.14,0,0,0,1.13,1.13Z"/><path class="b" d="M277.73,92.34h0a1.14,1.14,0,0,0,1.13-1.13V88.79a1.13,1.13,0,0,0-1.13-1.12h0a1.13,1.13,0,0,0-1.13,1.12v2.42a1.14,1.14,0,0,0,1.13,1.13Z"/><rect class="g" width="162.13" height="67.7" transform="translate(427.53 155.37) rotate(180)"/><rect class="e" width="31.41" height="47.9" rx="4.37" transform="translate(86.21 262.05)"/><rect class="b" width="31.41" height="4.12" rx="1.47" transform="translate(86.21 258.5)"/><rect class="c" width="22.79" height="34.77" rx="3.17" transform="translate(179.71 275.19)"/><rect class="b" width="22.79" height="2.99" rx="1.06" transform="translate(179.71 272.61)"/><rect class="c" width="43.16" height="27.93" rx="6" transform="translate(109.96 282.02)"/><rect class="d" width="43.16" height="5.66" rx="2.01" transform="translate(109.96 277.14)"/><rect class="b" width="5.04" height="82.64" transform="translate(287.47 382.4) rotate(180)"/><rect class="b" width="27.29" height="16.08" transform="translate(400.67 283.67)"/><rect class="d" width="135.68" height="16.08" transform="translate(400.66 299.76) rotate(180)"/><rect class="b" width="27.29" height="16.08" transform="translate(400.67 326.62)"/><rect class="d" width="135.68" height="16.08" transform="translate(400.66 342.7) rotate(180)"/><rect class="b" width="5.04" height="82.64" transform="translate(423.15 382.4) rotate(180)"/><rect class="d" width="5.04" height="82.64" transform="translate(400.66 382.4) rotate(180)"/><rect class="d" width="5.04" height="82.64" transform="translate(270.02 382.4) rotate(180)"/><rect class="c" width="64.14" height="71.93" transform="translate(133.82 174.04) rotate(180)"/><rect class="d" width="67.67" height="71.93" transform="translate(132.82 174.04) rotate(180)"/><rect class="f" width="60.6" height="56.33" transform="translate(70.82 168.37) rotate(-90)"/><path class="c" d="M89.65,120.6a11.3,11.3,0,0,0-4.42,21.73L127.16,160V135.42L94,121.47a11.33,11.33,0,0,0-4.35-.87Z"/><rect class="c" width="64.14" height="71.93" transform="translate(219 210) rotate(180)"/><rect class="d" width="67.67" height="71.93" transform="translate(218 210) rotate(180)"/><rect class="f" width="60.6" height="56.33" transform="translate(156 204.33) rotate(-90)"/><path class="c" d="M190.51,167.17,156,152.65v25.13l25.52,10.73a11.58,11.58,0,0,0,9-21.34Z"/><ellipse class="d" cx="193.89" cy="11.32" rx="193.89" ry="11.32" transform="translate(56.11 404.92)"/><path class="h" d="M194.07,116.21c1-4.21,11.46-8.21,20.46-2a22,22,0,0,1,8.5,25.28c-4.83,14.3,20.38,13.77,26.22,37.88,4.61,19,.34,45.91-25.39,44.45-39.27-2.23-35.88-40.61-37.6-60.78S163.11,118.25,194.07,116.21Z"/><path class="i" d="M181.1,170.06c-.17,2.92-.51,5.59-.89,8.36s-.91,5.48-1.5,8.2-1.26,5.44-2.11,8.12a75,75,0,0,1-2.92,8l-.88,2c-.13.29-.37.73-.55,1.1s-.42.71-.63,1.07a31,31,0,0,1-2.74,3.65,63.077,63.077,0,0,1-6,6,111.717,111.717,0,0,1-13.16,10L147.06,223c1.88-1.82,3.8-3.7,5.65-5.58s3.68-3.79,5.42-5.73a75.932,75.932,0,0,0,4.85-5.89,26.309,26.309,0,0,0,1.88-3c.11-.23.25-.47.34-.69s.19-.4.3-.73l.68-1.76a98.877,98.877,0,0,0,4-14.83c.51-2.54.88-5.12,1.26-7.69s.67-5.22.89-7.66Z"/><path class="j" d="M175.1,159.56c-3.55.9-6,15.52-6,15.52l13.59,9.24s5.59-17.33,2.85-21.24C182.66,159,180.28,158.24,175.1,159.56Z"/><path class="k" d="M175.42,162.82l-2.73,14.74,5.5,3.73Z"/><path class="i" d="M148.68,221.78l-9.15,1.46,5.22,5.78s5.39-1.23,6.34-4.68Z"/><path class="i" d="M135.2,224.39l5.22,5.65,4.33-1.02-5.22-5.78Z"/><path class="i" d="M194.32,405.6H185.7l-.58-19.96h8.62Z"/><path class="i" d="M253.92,380.2l-7.98,3.26-10.11-17.43,7.98-3.26Z"/><path class="h" d="M244.44,382.26l8.32-4.94a.69.69,0,0,1,.9.15l4.86,6a1.39,1.39,0,0,1-.41,2c-2.93,1.67-4.43,2.33-8.09,4.51-2.25,1.34-7.55,5.92-10.66,7.77s-5.1-1.13-4-2.18a29.57,29.57,0,0,0,8.08-12.16,2.31,2.31,0,0,1,1-1.15Z"/><path class="h" d="M185.4,404.61h9.69a.67.67,0,0,1,.68.58l1.11,7.67a1.39,1.39,0,0,1-1.38,1.53c-3.38-.06-5-.26-9.27-.26-2.62,0-8,.27-11.65.27s-3.81-3.57-2.31-3.9c6.76-1.45,9.42-3.45,11.69-5.36a2.23,2.23,0,0,1,1.44-.53Z"/><g class="l"><path d="M185.13,385.65l.29,10.29h8.62l-.29-10.29Z"/><path d="M243.82,362.77l-7.99,3.26,5.22,8.99,7.98-3.26Z"/></g><path class="j" d="M175.1,159.56s-4.11,1.44,4.12,52h35c-.59-14.25-.6-23,6.21-52.27a102.861,102.861,0,0,0-14.87-2,110.757,110.757,0,0,0-15.89,0C182.84,158,175.1,159.56,175.1,159.56Z"/><path class="k" d="M217.54,170.88c-3.17.79-6.1,4.25-5.75,10.62a15.31,15.31,0,0,0,2.92,8c.56-4.9,1.5-10.59,3-17.87Z"/><path class="e" d="M191.51,171.33s4.55,2.81,5.74,7c4.94-3.62,11.65-13.69,11.92-19.72a1.33,1.33,0,0,0-1.33-1.34,16.408,16.408,0,0,0-2.28.1Z"/><path class="e" d="M191.51,171.33s-4.55,2.81-5.74,7c-5.31-3.89-2.36-16.73.68-21a15.362,15.362,0,0,1,3.22,0Z"/><path class="i" d="M204,139.45c-1,5.11-2,14.48,1.57,17.9a36.87,36.87,0,0,1-14.05,14c-7.09-5.66-1.84-14-1.84-14,5.7-1.36,5.55-5.6,4.56-9.57Z"/><path class="k" d="M200,142.85l-5.78,4.93a15.579,15.579,0,0,1,.49,2.82c2.18-.32,5.61-2.17,6.08-4.54C201,144.94,200.2,143.38,200,142.85Z"/><path class="i" d="M212.56,131.23c-2.36,8.22-3.19,11.75-8.35,15.1-7.76,5-17.34.32-17.48-8.44-.13-7.89,3.76-20,12.66-21.51a11.66,11.66,0,0,1,13.17,14.85Z"/><path class="h" d="M194.81,117.11c.39,2.78,15.61,11.72,18.5,7.06s-1.27-8.17-7.75-9.06A16.41,16.41,0,0,0,194.81,117.11Z"/><path class="h" d="M204.73,118.62c-1.87,2.46,2.09,20.18,7.76,18.51s5.41-7.34,1.47-12.57a15.2,15.2,0,0,0-9.23-5.94Z"/><path class="j" d="M179.22,211.58S172.42,278,173,304.25c.59,27.34,10.61,89.7,10.61,89.7h11.65s-1.84-60.76-.81-87.61c1.12-29.27,10.42-94.76,10.42-94.76Z"/><path class="m" d="M179.22,211.58S172.42,278,173,304.25c.59,27.34,10.61,89.7,10.61,89.7h11.65s-1.84-60.76-.81-87.61c1.12-29.27,10.42-94.76,10.42-94.76Z"/><path class="h" d="M196.25,394.36H182.58l-1-4.36,15.31-.53Z"/><path class="k" d="M194.32,228.1c-8.6,17.29-1.73,48.84,1.31,60.58,1.56-17.63,4.19-39.18,6.24-55C200.56,224.72,198.28,220.12,194.32,228.1Z"/><path class="j" d="M188.46,211.58s7.93,69,13.92,91.18c7.11,26.31,36,71.2,36,71.2l10.88-4.44s-18.65-51.11-24.09-65c-11.6-29.59-1.67-73.67-10.94-93Z"/><path class="m" d="M188.46,211.58s7.93,69,13.92,91.18c7.11,26.31,36,71.2,36,71.2l10.88-4.44s-18.65-51.11-24.09-65c-11.6-29.59-1.67-73.67-10.94-93Z"/><path class="h" d="M250.74,369.57l-13.5,5.51-3.17-3.65,15.59-7.2Z"/><path class="h" d="M91.61,123.76a58.8,58.8,0,1,0,83,5.06,58.8,58.8,0,0,0-83-5.06Zm71.77,81.1A49.49,49.49,0,1,1,167.65,135a49.49,49.49,0,0,1-4.27,69.86Z"/><path class="n" d="M127.82,213.07a45.36,45.36,0,1,1,48-42.51,45.36,45.36,0,0,1-48,42.51Z"/><g class="o"><path class="e" d="M133.34,122.52h-.85l-47.12,41.7-.06.85a45.17,45.17,0,0,0,7.46,27.8L160,133.3a45.18,45.18,0,0,0-26.66-10.78Z"/><path class="e" d="M164.39,137.56,96.46,197.67a45,45,0,0,0,7.64,7L170.36,146a45.339,45.339,0,0,0-5.97-8.44Z"/></g><path class="h" d="M176.85,212.27l-7.74,6.85a2.84,2.84,0,0,1-4-.24h0a2.86,2.86,0,0,1,.24-4l7.74-6.85a2.84,2.84,0,0,1,4,.25h0A2.83,2.83,0,0,1,176.85,212.27Z"/><path class="h" d="M174,211c5.83,5.13,11.41,10.49,16.92,15.92s10.89,11,16.21,16.54,10.54,11.26,15.72,17c4.86,6,11.48,10.44,12.47,19.86a4.77,4.77,0,0,1-5.8,5.14c-9.24-2.13-12.83-9.24-18.19-14.8q-7.58-8.75-14.94-17.66t-14.45-18.11c-4.72-6.12-9.36-12.31-13.75-18.72A3.91,3.91,0,0,1,174,211Z"/><path class="h" d="M198.78,130.49c-.15.68-.63,1.15-1.08,1s-.68-.73-.53-1.4.63-1.15,1.08-1S198.93,129.81,198.78,130.49Z"/><path class="h" d="M191.11,128.79c-.15.68-.64,1.15-1.08,1.05s-.68-.73-.53-1.41.63-1.15,1.08-1.05S191.26,128.11,191.11,128.79Z"/><path class="h" d="M190.77,127.46l-1.53-.83S189.79,128.09,190.77,127.46Z"/><path class="p" d="M193.2,130.54a18.649,18.649,0,0,1-3.38,3.79,3,3,0,0,0,2.32,1Z"/><path class="h" d="M195.25,138.8a6.45,6.45,0,0,1-1-.15.2.2,0,1,1,.09-.39,5.53,5.53,0,0,0,4.85-1.13.21.21,0,1,1,.29.29,5.77,5.77,0,0,1-4.23,1.38Z"/><path class="i" d="M213.11,139.43a6.24,6.24,0,0,1-4,2.63c-2.16.4-3-1.58-2.27-3.51.68-1.74,2.64-4,4.72-3.56a2.81,2.81,0,0,1,1.55,4.44Z"/><path class="h" d="M202,127.5a.41.41,0,0,1-.45-.15c-1.11-1.53-3.55-1.51-3.57-1.51a.41.41,0,0,1-.41-.41.4.4,0,0,1,.4-.41c.12,0,2.88,0,4.24,1.85a.41.41,0,0,1-.09.57Z"/><path class="h" d="M189.51,123.17a.42.42,0,0,1-.34-.22.41.41,0,0,1,.18-.55,4.09,4.09,0,0,1,3.73-.07.42.42,0,0,1,.15.56.41.41,0,0,1-.56.15,3.25,3.25,0,0,0-2.95.09A.52.52,0,0,1,189.51,123.17Z"/><path class="j" d="M241.13,385.53H241a1.16,1.16,0,0,1-.84-.76.68.68,0,0,1,.05-.7c.63-.9,3.75-.79,4.1-.77a.18.18,0,0,1,.18.13.21.21,0,0,1-.05.22C243.67,384.41,242.2,385.66,241.13,385.53Zm2.7-1.85c-1.25,0-2.92.14-3.25.61a.31.31,0,0,0,0,.31.79.79,0,0,0,.55.52C241.7,385.25,242.69,384.7,243.83,383.68Z"/><path class="j" d="M244,383.68c-1.07-.13-3-.86-3.26-1.7a.71.71,0,0,1,.3-.84,1.07,1.07,0,0,1,.88-.21c1.23.24,2.51,2.37,2.57,2.46a.23.23,0,0,1,0,.2.21.21,0,0,1-.18.1,1.658,1.658,0,0,1-.31-.01Zm-2.21-2.36a.69.69,0,0,0-.5.14c-.21.16-.2.29-.16.38.2.57,1.75,1.28,2.79,1.42-.46-.69-1.34-1.79-2.07-1.93Z"/><path class="j" d="M182.17,406.11a3.21,3.21,0,0,1-2.09-.53,1.12,1.12,0,0,1-.37-1,.64.64,0,0,1,.34-.54c1.06-.59,4.5,1.17,4.88,1.37a.21.21,0,0,1,.11.21.19.19,0,0,1-.16.17,14.241,14.241,0,0,1-2.71.32Zm-1.54-1.78a.81.81,0,0,0-.38.07.28.28,0,0,0-.14.22.77.77,0,0,0,.24.66c.52.47,1.94.55,3.85.23a11.21,11.21,0,0,0-3.57-1.18Z"/><path class="j" d="M184.84,405.81h-.08c-1-.46-3.06-2.32-2.9-3.3,0-.23.2-.52.76-.58a1.47,1.47,0,0,1,1.13.36c1.09.9,1.29,3.22,1.29,3.32a.18.18,0,0,1-.08.18.19.19,0,0,1-.12.02Zm-2.05-3.5h-.13c-.37,0-.39.19-.4.24-.1.58,1.28,2.05,2.33,2.68a4.72,4.72,0,0,0-1.1-2.66A1,1,0,0,0,182.79,402.31Z"/><path class="h" d="M198.44,129.17l-1.53-.84S197.46,129.79,198.44,129.17Z"/><path class="j" d="M214.75,209.52l.89,3.13c.12.25-.16.5-.57.5H179c-.31,0-.57-.16-.59-.36l-.32-3.13c0-.22.25-.4.6-.4h35.45a.63.63,0,0,1,.61.26Z"/><path class="k" d="M214.75,209.52l.89,3.13c.12.25-.16.5-.57.5H179c-.31,0-.57-.16-.59-.36l-.32-3.13c0-.22.25-.4.6-.4h35.45a.63.63,0,0,1,.61.26Z"/><path class="j" d="M209.87,213.48h.95c.19,0,.33-.09.32-.21l-.45-4.07c0-.12-.18-.22-.36-.22h-1c-.19,0-.34.1-.32.22l.44,4.07A.471.471,0,0,0,209.87,213.48Z"/><path class="q" d="M209.87,213.48h.95c.19,0,.33-.09.32-.21l-.45-4.07c0-.12-.18-.22-.36-.22h-1c-.19,0-.34.1-.32.22l.44,4.07A.471.471,0,0,0,209.87,213.48Z"/><path class="j" d="M181.71,213.48h.95c.19,0,.33-.09.32-.21l-.44-4.07c0-.12-.18-.22-.37-.22h-.95c-.19,0-.33.1-.32.22l.44,4.07C181.36,213.39,181.52,213.48,181.71,213.48Z"/><path class="q" d="M181.71,213.48h.95c.19,0,.33-.09.32-.21l-.44-4.07c0-.12-.18-.22-.37-.22h-.95c-.19,0-.33.1-.32.22l.44,4.07C181.36,213.39,181.52,213.48,181.71,213.48Z"/><path class="j" d="M195.73,213.48h1c.19,0,.33-.09.32-.21l-.44-4.07c0-.12-.18-.22-.37-.22h-.95c-.19,0-.33.1-.32.22l.44,4.07C195.38,213.39,195.54,213.48,195.73,213.48Z"/><path class="q" d="M195.73,213.48h1c.19,0,.33-.09.32-.21l-.44-4.07c0-.12-.18-.22-.37-.22h-.95c-.19,0-.33.1-.32.22l.44,4.07C195.38,213.39,195.54,213.48,195.73,213.48Z"/><path class="i" d="M193.19,218.56l-8.5-3.8,2.42,8.43s5.4,1.22,7.75-1.49Z"/><path class="i" d="M224.51,169.69c.39,2.95.7,5.92,1.05,8.87l.9,8.9c.32,3,.56,5.93.84,8.9l.37,4.45.1,1.12v1.89a9.491,9.491,0,0,1-1.19,3.61,15.05,15.05,0,0,1-4,4.38,31.06,31.06,0,0,1-4.28,2.71,59,59,0,0,1-8.71,3.65c-2.93,1-5.87,1.83-8.82,2.57s-5.9,1.35-8.95,1.82l-1-4.25c2.75-.91,5.56-1.84,8.29-2.89s5.46-2.08,8.08-3.27a62,62,0,0,0,7.48-3.9,23.458,23.458,0,0,0,3.14-2.27,7.66,7.66,0,0,0,1.89-2.26,1.3,1.3,0,0,0,.16-.62s0,0,0-.08v-.22l-.16-1.1-.64-4.43c-.39-3-.83-5.91-1.19-8.87l-1.13-8.87c-.32-3-.69-5.92-1-8.89Z"/><path class="j" d="M220.43,159.31c3.5,1.06,7.72,13.14,7.72,13.14l-12.27,12.63s-6.3-13-4.83-17.52C212.59,162.84,216.43,158.09,220.43,159.31Z"/><path class="i" d="M177.66,216.51l2.4,6.94,7.05-.26-2.42-8.43Z"/><path class="h" d="M296.36,191.62c2.3-16.44-9.18-29.77-25.62-29.77H390.86c16.45,0,27.92,13.33,25.63,29.77Z"/><path class="r" d="M296.36,191.62c2.3-16.44-9.18-29.77-25.62-29.77H390.86c16.45,0,27.92,13.33,25.63,29.77Z"/><path class="j" d="M270.74,161.85H390.86c-16.44,0-31.63,13.33-33.92,29.77L329.78,386.46c-2.29,16.45-17.48,29.78-33.92,29.78H235.28c-16.44,0-27.91-13.33-25.62-29.78l27.15-194.84C239.11,175.18,254.29,161.85,270.74,161.85Z"/><path class="h" d="M270.23,386.46c-2.29,16.45,9.18,29.78,25.63,29.78H175.73c-16.44,0-27.91-13.33-25.62-29.78Z"/><path class="r" d="M270.23,386.46c-2.29,16.45,9.18,29.78,25.63,29.78H175.73c-16.44,0-27.91-13.33-25.62-29.78Z"/><path class="q" d="M289.49,222.46H336a3,3,0,0,0,2.81-2.46h0a2.11,2.11,0,0,0-2.12-2.47H290.18a2.94,2.94,0,0,0-2.81,2.47h0a2.1,2.1,0,0,0,2.12,2.46Z"/><path class="q" d="M288.21,231.63H322.4a2.94,2.94,0,0,0,2.81-2.46h0a2.1,2.1,0,0,0-2.12-2.46H288.9a2.93,2.93,0,0,0-2.81,2.46h0a2.1,2.1,0,0,0,2.12,2.46Z"/><ellipse class="q" cx="15.93" cy="13.86" rx="15.93" ry="13.86" transform="matrix(0.731, -0.682, 0.682, 0.731, 238.367, 223.674)"/><path class="f" d="M246.21,223a12.23,12.23,0,0,0,.72,6.32,11.19,11.19,0,0,0,10.7,6.95,15.63,15.63,0,0,0,12.63-6.95,14.87,14.87,0,0,0,2.48-6.32c1-7.32-4.09-13.26-11.42-13.26A15.76,15.76,0,0,0,246.21,223Z"/><path class="s" d="M249.82,228a8.58,8.58,0,0,0,8.2,5.33,12,12,0,0,0,9.7-5.33,14.33,14.33,0,0,0-8.57-2.71,17.94,17.94,0,0,0-9.33,2.71Z"/><path class="s" d="M255.39,219.7a3.86,3.86,0,0,0,3.91,4.54,5.38,5.38,0,0,0,5.16-4.54,3.85,3.85,0,0,0-3.9-4.53,5.39,5.39,0,0,0-5.17,4.53Z"/><path class="q" d="M283.91,262.53H299.6a2.94,2.94,0,0,0,2.81-2.46h0a2.1,2.1,0,0,0-2.12-2.46h-15.7a2.92,2.92,0,0,0-2.8,2.46h0a2.1,2.1,0,0,0,2.12,2.46Z"/><path class="q" d="M309.07,262.53h22.42a2.94,2.94,0,0,0,2.81-2.46h0a2.09,2.09,0,0,0-2.12-2.46H309.76a2.93,2.93,0,0,0-2.81,2.46h0a2.1,2.1,0,0,0,2.12,2.46Z"/><path class="q" d="M282.63,271.71h38.43a2.94,2.94,0,0,0,2.81-2.47h0a2.1,2.1,0,0,0-2.12-2.46H283.31a2.94,2.94,0,0,0-2.8,2.46h0a2.1,2.1,0,0,0,2.12,2.47Z"/><ellipse class="q" cx="15.93" cy="13.86" rx="15.93" ry="13.86" transform="matrix(0.731, -0.682, 0.682, 0.731, 232.787, 263.748)"/><path class="f" d="M240.62,263a12.22,12.22,0,0,0,.73,6.32A11.19,11.19,0,0,0,252,276.3a15.61,15.61,0,0,0,12.63-6.95,14.71,14.71,0,0,0,2.49-6.32c1-7.32-4.09-13.26-11.42-13.26A15.76,15.76,0,0,0,240.62,263Z"/><path class="s" d="M244.23,268.1a8.59,8.59,0,0,0,8.21,5.33,12,12,0,0,0,9.69-5.33,14.31,14.31,0,0,0-8.57-2.71,18,18,0,0,0-9.33,2.71Z"/><path class="s" d="M249.81,259.77a3.86,3.86,0,0,0,3.9,4.54,5.39,5.39,0,0,0,5.17-4.54,3.85,3.85,0,0,0-3.9-4.53,5.39,5.39,0,0,0-5.17,4.53Z"/><path class="q" d="M278.32,302.61h27.33a2.94,2.94,0,0,0,2.81-2.47h0a2.1,2.1,0,0,0-2.12-2.46H279a2.94,2.94,0,0,0-2.81,2.46h0a2.1,2.1,0,0,0,2.13,2.47Z"/><path class="q" d="M277,311.78h42.61a3,3,0,0,0,2.81-2.47h0a2.11,2.11,0,0,0-2.13-2.46h-42.6a2.94,2.94,0,0,0-2.81,2.46h0a2.1,2.1,0,0,0,2.12,2.47Z"/><path class="t" d="M230.39,350.82h65.24a4.13,4.13,0,0,0,3.94-3.46h0a2.94,2.94,0,0,0-3-3.45H231.35a4.1,4.1,0,0,0-3.93,3.45h0a2.94,2.94,0,0,0,2.97,3.46Z"/><path class="t" d="M228.6,363.68h47.94a4.11,4.11,0,0,0,3.93-3.46h0a2.94,2.94,0,0,0-3-3.45H229.56a4.12,4.12,0,0,0-3.94,3.45h0a3,3,0,0,0,2.98,3.46Z"/><path class="t" d="M253.07,193.41h77.79a2.12,2.12,0,0,0,2-1.79h0a1.52,1.52,0,0,0-1.54-1.78H253.57a2.14,2.14,0,0,0-2,1.78h0a1.53,1.53,0,0,0,1.5,1.79Z"/><ellipse class="q" cx="15.93" cy="13.86" rx="15.93" ry="13.86" transform="matrix(0.731, -0.682, 0.682, 0.731, 227.202, 303.822)"/><path class="f" d="M235,303.11a12.24,12.24,0,0,0,.72,6.32,11.2,11.2,0,0,0,10.7,6.94,15.64,15.64,0,0,0,12.63-6.94,14.92,14.92,0,0,0,2.48-6.32c1-7.33-4.09-13.27-11.42-13.27A15.76,15.76,0,0,0,235,303.11Z"/><path class="s" d="M238.65,308.18a8.59,8.59,0,0,0,8.21,5.33,12,12,0,0,0,9.69-5.33,14.26,14.26,0,0,0-8.57-2.71,17.85,17.85,0,0,0-9.33,2.71Z"/><path class="s" d="M244.22,299.85a3.86,3.86,0,0,0,3.91,4.53,5.38,5.38,0,0,0,5.16-4.53,3.86,3.86,0,0,0-3.9-4.54A5.39,5.39,0,0,0,244.22,299.85Z"/></g></svg>