<svg xmlns="http://www.w3.org/2000/svg" width="239.12" height="34.335" viewBox="0 0 239.12 34.335">
  <g id="Group_938" data-name="Group 938" transform="translate(2260 151)">
    <path id="Icon_material-camera" data-name="Icon material-camera" d="M14.1,15.75,21.255,3.36A15.458,15.458,0,0,0,18,3,14.976,14.976,0,0,0,8.52,6.375L14.01,15.9ZM32.31,13.5a15.037,15.037,0,0,0-9-9.51L17.82,13.5H32.31ZM32.7,15H21.465l.435.75,7.14,12.375A14.866,14.866,0,0,0,33,18,15.186,15.186,0,0,0,32.7,15ZM12.81,18,6.96,7.875A14.936,14.936,0,0,0,3,18a15.186,15.186,0,0,0,.3,3H14.535L12.81,18ZM3.69,22.5a15.037,15.037,0,0,0,9,9.51l5.49-9.51H3.69Zm16.905,0-5.85,10.14A15.458,15.458,0,0,0,18,33a14.976,14.976,0,0,0,9.48-3.375L21.99,20.1l-1.4,2.4Z" transform="translate(-2263 -153)" fill="#1dbf73"/>
    <g id="Group_937" data-name="Group 937" transform="translate(0 1.545)">
      <path id="Path_4400" data-name="Path 4400" d="M14.77.42A14.3,14.3,0,0,1,7.893-1.225,12.209,12.209,0,0,1,3.1-5.758,12.374,12.374,0,0,1,1.365-12.25,12.374,12.374,0,0,1,3.1-18.743a12.209,12.209,0,0,1,4.8-4.532A14.3,14.3,0,0,1,14.77-24.92a14.2,14.2,0,0,1,6.86,1.645,12.367,12.367,0,0,1,4.8,4.532,12.279,12.279,0,0,1,1.75,6.493,12.279,12.279,0,0,1-1.75,6.493,12.367,12.367,0,0,1-4.8,4.533A14.2,14.2,0,0,1,14.77.42Zm0-4.83a7.774,7.774,0,0,0,3.92-1A7.158,7.158,0,0,0,21.438-8.19a8.18,8.18,0,0,0,1-4.06,8.18,8.18,0,0,0-1-4.06,7.158,7.158,0,0,0-2.747-2.782,7.774,7.774,0,0,0-3.92-1,7.774,7.774,0,0,0-3.92,1A7.158,7.158,0,0,0,8.1-16.31a8.18,8.18,0,0,0-1,4.06,8.18,8.18,0,0,0,1,4.06A7.158,7.158,0,0,0,10.85-5.408,7.774,7.774,0,0,0,14.77-4.41ZM43.33.42q-5.25,0-8.173-2.905t-2.923-8.3V-24.5h5.67v13.51q0,6.58,5.46,6.58A5.118,5.118,0,0,0,47.425-6q1.4-1.592,1.4-4.988V-24.5h5.6v13.72q0,5.39-2.923,8.3T43.33.42Zm21.35-20.3H56.84V-24.5H78.19v4.62H70.35V0H64.68Z" transform="translate(-2220 -125)" fill="#067b44"/>
      <path id="Path_4399" data-name="Path 4399" d="M14.63.42A14.073,14.073,0,0,1,7.858-1.208,12.146,12.146,0,0,1,3.1-5.723,12.439,12.439,0,0,1,1.365-12.25,12.439,12.439,0,0,1,3.1-18.778a12.146,12.146,0,0,1,4.76-4.515,14.146,14.146,0,0,1,6.808-1.627,14.279,14.279,0,0,1,5.757,1.12,11.532,11.532,0,0,1,4.323,3.22l-3.64,3.36a7.826,7.826,0,0,0-6.16-2.87,8.18,8.18,0,0,0-4.06,1A7.091,7.091,0,0,0,8.1-16.31a8.18,8.18,0,0,0-1,4.06,8.18,8.18,0,0,0,1,4.06,7.091,7.091,0,0,0,2.782,2.783,8.18,8.18,0,0,0,4.06,1,7.789,7.789,0,0,0,6.16-2.905l3.64,3.36A11.346,11.346,0,0,1,20.405-.7,14.4,14.4,0,0,1,14.63.42ZM39.62-19.11a7.749,7.749,0,0,1,5.652,2.1q2.153,2.1,2.153,6.23V0h-5.46V-9.94a4.909,4.909,0,0,0-.98-3.343,3.594,3.594,0,0,0-2.835-1.1,4.345,4.345,0,0,0-3.29,1.278,5.29,5.29,0,0,0-1.225,3.8V0h-5.46V-25.97h5.46v9.1a7.263,7.263,0,0,1,2.625-1.663A9.5,9.5,0,0,1,39.62-19.11Zm12.74.28h5.46V0H52.36Zm2.73-2.625a3.463,3.463,0,0,1-2.45-.875,2.838,2.838,0,0,1-.945-2.17,2.838,2.838,0,0,1,.945-2.17,3.463,3.463,0,0,1,2.45-.875,3.55,3.55,0,0,1,2.45.84,2.693,2.693,0,0,1,.945,2.1,2.972,2.972,0,0,1-.945,2.257A3.423,3.423,0,0,1,55.09-21.455ZM87.01-19.11a7.591,7.591,0,0,1,5.618,2.083q2.082,2.082,2.083,6.247V0H89.25V-9.94a5.1,5.1,0,0,0-.927-3.343,3.261,3.261,0,0,0-2.643-1.1,3.894,3.894,0,0,0-3.045,1.242,5.355,5.355,0,0,0-1.12,3.693V0h-5.46V-9.94q0-4.445-3.57-4.445a3.852,3.852,0,0,0-3.01,1.242,5.355,5.355,0,0,0-1.12,3.693V0H62.9V-18.83H68.11v2.17a6.892,6.892,0,0,1,2.573-1.82,8.659,8.659,0,0,1,3.342-.63,8.1,8.1,0,0,1,3.605.788,6.384,6.384,0,0,1,2.59,2.292,7.724,7.724,0,0,1,2.923-2.275A9.22,9.22,0,0,1,87.01-19.11Zm23.73,0a9.6,9.6,0,0,1,4.778,1.208,8.67,8.67,0,0,1,3.377,3.395,10.25,10.25,0,0,1,1.225,5.092,10.25,10.25,0,0,1-1.225,5.093,8.67,8.67,0,0,1-3.377,3.4A9.6,9.6,0,0,1,110.74.28,7.272,7.272,0,0,1,105.07-2V6.79H99.61V-18.83h5.215v2.17A7.242,7.242,0,0,1,110.74-19.11ZM109.795-4.2a4.548,4.548,0,0,0,3.447-1.418,5.284,5.284,0,0,0,1.348-3.8,5.284,5.284,0,0,0-1.348-3.8,4.548,4.548,0,0,0-3.447-1.417,4.548,4.548,0,0,0-3.448,1.417A5.284,5.284,0,0,0,105-9.415a5.284,5.284,0,0,0,1.347,3.8A4.548,4.548,0,0,0,109.795-4.2Z" transform="translate(-2141 -125)" fill="#1dbf73"/>
    </g>
  </g>
</svg>
