<svg xmlns="http://www.w3.org/2000/svg" width="67.046" height="61.216" viewBox="0 0 67.046 61.216"><path id="add-a-photo" d="M8.745,10.245V1.5h5.83v8.745H23.32v5.83H14.575V24.82H8.745V16.075H0v-5.83Zm8.745,17.49V18.99h8.745V10.245H46.641l5.335,5.83h9.241a5.847,5.847,0,0,1,5.83,5.83v34.98a5.847,5.847,0,0,1-5.83,5.83H14.575a5.847,5.847,0,0,1-5.83-5.83V27.735ZM37.9,53.971A14.575,14.575,0,1,0,23.32,39.4,14.581,14.581,0,0,0,37.9,53.971ZM28.567,39.4A9.328,9.328,0,1,0,37.9,30.067,9.318,9.318,0,0,0,28.567,39.4Z" transform="translate(0 -1.5)" fill="#1dbf73"></path></svg>