<svg xmlns="http://www.w3.org/2000/svg" width="66.604" height="76.118" viewBox="0 0 66.604 76.118">
  <path id="invoice" d="M61.861,71.361,57.1,76.118l-4.757-4.757-4.757,4.757-4.757-4.757-4.757,4.757-4.757-4.757-4.757,4.757L23.8,71.361l-4.757,4.757-4.757-4.757L9.53,76.118,4.772,71.361.015,76.118V4.757A4.572,4.572,0,0,1,1.427,1.412,4.572,4.572,0,0,1,4.772,0H61.861a4.572,4.572,0,0,1,3.345,1.412,4.572,4.572,0,0,1,1.412,3.345V76.118ZM11.908,61.846H26.181a2.379,2.379,0,0,0,0-4.757H11.908a2.379,2.379,0,0,0,0,4.757ZM57.1,11.893a2.412,2.412,0,0,0-2.379-2.379H11.908A2.412,2.412,0,0,0,9.53,11.893V40.438a2.412,2.412,0,0,0,2.379,2.379H38.074v7.136a2.412,2.412,0,0,0,2.379,2.379H54.725A2.412,2.412,0,0,0,57.1,49.953ZM42.832,42.817h9.515v4.757H42.832Zm0-9.515h9.515v4.757H42.832Zm0-9.515h9.515v4.757H42.832Zm0-9.515h9.515V19.03H42.832ZM14.287,33.3H38.074v4.757H14.287Zm0-9.515H38.074v4.757H14.287Zm0-9.515H38.074V19.03H14.287Z" transform="translate(-0.015)" fill="#1dbf73"/>
</svg>
