<svg xmlns="http://www.w3.org/2000/svg" width="95.148" height="76.118" viewBox="0 0 95.148 76.118">
  <g id="Group_549" data-name="Group 549" transform="translate(-975 -4432.854)">
    <path id="Path_93" data-name="Path 93" d="M83.586,4.5H1.125V67.932H83.586ZM77.243,61.589H7.468V10.843H77.243Z" transform="translate(973.875 4428.354)" fill="#1dbf73"/>
    <path id="Path_94" data-name="Path 94" d="M79.7,10.125V64.042H6.75v6.343H86.04V10.125Z" transform="translate(984.108 4438.587)" fill="#1dbf73"/>
    <path id="Path_95" data-name="Path 95" d="M24.961,41.3c7.868,0,14.274-6.966,14.274-15.525s-6.4-15.525-14.274-15.525S10.687,17.219,10.687,25.778,17.089,41.3,24.961,41.3Zm0-24.71c4.373,0,7.93,4.119,7.93,9.182s-3.558,9.182-7.93,9.182-7.93-4.119-7.93-9.182,3.558-9.182,7.93-9.182Z" transform="translate(991.27 4438.82)" fill="#1dbf73"/>
    <path id="Path_96" data-name="Path 96" d="M5.625,9.563h6.343V44.451H5.625Z" transform="translate(982.061 4437.564)" fill="#1dbf73"/>
    <path id="Path_97" data-name="Path 97" d="M23.625,9.563h6.343V44.451H23.625Z" transform="translate(1014.807 4437.564)" fill="#1dbf73"/>
  </g>
</svg>
