<svg xmlns="http://www.w3.org/2000/svg" width="76.118" height="76.118" viewBox="0 0 76.118 76.118">
  <g id="Group_551" data-name="Group 551" transform="translate(-360 -4432.854)">
    <path id="Path_91" data-name="Path 91" d="M7.136,4.757A2.379,2.379,0,0,0,4.757,7.136V21.408a2.379,2.379,0,0,1-4.757,0V7.136A7.136,7.136,0,0,1,7.136,0H21.408a2.379,2.379,0,0,1,0,4.757Zm45.2-2.379A2.379,2.379,0,0,1,54.71,0H68.982a7.136,7.136,0,0,1,7.136,7.136V21.408a2.379,2.379,0,1,1-4.757,0V7.136a2.379,2.379,0,0,0-2.379-2.379H54.71A2.379,2.379,0,0,1,52.331,2.379ZM2.379,52.331A2.379,2.379,0,0,1,4.757,54.71V68.982a2.379,2.379,0,0,0,2.379,2.379H21.408a2.379,2.379,0,1,1,0,4.757H7.136A7.136,7.136,0,0,1,0,68.982V54.71a2.379,2.379,0,0,1,2.379-2.379Zm71.361,0a2.379,2.379,0,0,1,2.379,2.379V68.982a7.136,7.136,0,0,1-7.136,7.136H54.71a2.379,2.379,0,0,1,0-4.757H68.982a2.379,2.379,0,0,0,2.379-2.379V54.71A2.379,2.379,0,0,1,73.74,52.331Z" transform="translate(360 4432.854)" fill="#1dbf73" fill-rule="evenodd"/>
    <path id="Path_92" data-name="Path 92" d="M9.257,61.589s-4.757,0-4.757-4.757S9.257,37.8,33.044,37.8s28.544,14.272,28.544,19.03-4.757,4.757-4.757,4.757ZM33.044,33.044A14.272,14.272,0,1,0,18.772,18.772,14.272,14.272,0,0,0,33.044,33.044Z" transform="translate(365.015 4437.869)" fill="#1dbf73" fill-rule="evenodd"/>
  </g>
</svg>
