<?xml version="1.0" encoding="iso-8859-1"?>
<!-- Generator: Adobe Illustrator 21.0.0, SVG Export Plug-In . SVG Version: 6.00 Build 0)  -->
<svg xmlns="http://www.w3.org/2000/svg" xmlns:xlink="http://www.w3.org/1999/xlink" version="1.1" id="Capa_1" x="0px" y="0px" viewBox="0 0 512 512" style="enable-background:new 0 0 512 512;" xml:space="preserve" width="512" height="512">
<g>
	<path d="M15,512h362c8.291,0,15-6.709,15-15V120H286c-8.291,0-15-6.709-15-15V0H15C6.709,0,0,6.709,0,15v482   C0,505.291,6.709,512,15,512z M106,225v-15H91c-8.291,0-15-6.709-15-15s6.709-15,15-15h15v-15c0-8.291,6.709-15,15-15   s15,6.709,15,15v15h15c8.291,0,15,6.709,15,15s-6.709,15-15,15h-15v15c0,8.291-6.709,15-15,15S106,233.291,106,225z M166,420h-30   c-8.291,0-15-6.709-15-15s6.709-15,15-15h30c8.291,0,15,6.709,15,15S174.291,420,166,420z M166,360h-30c-8.291,0-15-6.709-15-15   s6.709-15,15-15h30c8.291,0,15,6.709,15,15S174.291,360,166,360z M166,300h-30c-8.291,0-15-6.709-15-15s6.709-15,15-15h30   c8.291,0,15,6.709,15,15S174.291,300,166,300z M226,360c-8.284,0-15-6.716-15-15c0-8.286,6.716-15,15-15s15,6.714,15,15   C241,353.284,234.284,360,226,360z M226,300c-8.284,0-15-6.716-15-15c0-8.286,6.716-15,15-15s15,6.714,15,15   C241,293.284,234.284,300,226,300z M316,360h-30c-8.291,0-15-6.709-15-15s6.709-15,15-15h30c8.291,0,15,6.709,15,15   S324.291,360,316,360z M331,285c0,8.291-6.709,15-15,15h-30c-8.291,0-15-6.709-15-15s6.709-15,15-15h30   C324.291,270,331,276.709,331,285z M301,180c8.291,0,15,6.709,15,15s-6.709,15-15,15h-60c-8.291,0-15-6.709-15-15s6.709-15,15-15   H301z M76,90h150c8.291,0,15,6.709,15,15s-6.709,15-15,15H76c-8.291,0-15-6.709-15-15S67.709,90,76,90z M76,270   c8.284,0,15,6.714,15,15c0,8.284-6.716,15-15,15s-15-6.716-15-15C61,276.714,67.716,270,76,270z M76,330c8.284,0,15,6.714,15,15   c0,8.284-6.716,15-15,15s-15-6.716-15-15C61,336.714,67.716,330,76,330z M76,390c8.284,0,15,6.714,15,15c0,8.284-6.716,15-15,15   s-15-6.716-15-15C61,396.714,67.716,390,76,390z"/>
	<polygon points="301,90 383.211,90 301,8.789  "/>
	<path d="M512,75c0-8.291-6.709-15-15-15h-60c-8.291,0-15,6.709-15,15v255h90V75z"/>
	<path d="M467,450c6.46,0,12.188-4.131,14.224-10.254L507.805,360h-81.61l26.581,79.746C454.813,445.869,460.54,450,467,450z"/>
</g>















</svg>
