<svg xmlns="http://www.w3.org/2000/svg" width="66.224" height="52.033" viewBox="0 0 66.224 52.033"><path id="videocamera" d="M51.771,21.191a1.359,1.359,0,0,0-1.36-1.375H42.754v-4.76a9.54,9.54,0,0,0-9.593-9.431H6.833v7.1H32.865a1.726,1.726,0,0,1,1.463,1.493v5.6H3.64a1.384,1.384,0,0,0-1.39,1.375V56.284a1.384,1.384,0,0,0,1.39,1.375H50.411a1.359,1.359,0,0,0,1.36-1.375V46.749l16.7,5.13V25.8l-16.7,5.13ZM35.688,44.208H18.23a5.292,5.292,0,1,1,5.306-5.262,5.449,5.449,0,0,1-1.6,3.784H31.977a5.449,5.449,0,0,1-1.6-3.784,5.306,5.306,0,1,1,5.306,5.262Z" transform="translate(-2.25 -5.625)" fill="#1dbf73"></path></svg>